HIERARCHY
ROOT joint_Root
{
	OFFSET 0.0 0.0 0.0
	CHANNELS 6 Xposition Yposition Zposition Zrotation Xrotation Yrotation 
	JOINT Hips
	{
		OFFSET 4.5925 91.4895 -427.239
		CHANNELS 6 Xposition Yposition Zposition Zrotation Xrotation Yrotation 
		JOINT Spine
		{
			OFFSET 15.7357 0.0 0.0
			CHANNELS 6 Xposition Yposition Zposition Zrotation Xrotation Yrotation 
			JOINT Chest
			{
				OFFSET 8.98455 -0.406207 0.0
				CHANNELS 6 Xposition Yposition Zposition Zrotation Xrotation Yrotation 
				JOINT Neck
				{
					OFFSET 16.3773 0.0 0.0
					CHANNELS 6 Xposition Yposition Zposition Zrotation Xrotation Yrotation 
					JOINT Head
					{
						OFFSET 6.45672 0.0 0.0
						CHANNELS 6 Xposition Yposition Zposition Zrotation Xrotation Yrotation 
						End Site
						{
							OFFSET 0.0 0.0 0.0
						}
					}
				}
				JOINT Shoulder_L
				{
					OFFSET 12.9942 -0.242716 4.98039
					CHANNELS 6 Xposition Yposition Zposition Zrotation Xrotation Yrotation 
					JOINT UpperArm_L
					{
						OFFSET 5.34809 0.0 0.0
						CHANNELS 6 Xposition Yposition Zposition Zrotation Xrotation Yrotation 
						JOINT LowerArm_L
						{
							OFFSET 24.3286 1.87007e-05 0.0
							CHANNELS 6 Xposition Yposition Zposition Zrotation Xrotation Yrotation 
							JOINT Hand_L
							{
								OFFSET 22.2916 0.0 0.0
								CHANNELS 6 Xposition Yposition Zposition Zrotation Xrotation Yrotation 
								End Site
								{
									OFFSET 0.0 0.0 0.0
								}
							}
						}
					}
				}
				JOINT Shoulder_R
				{
					OFFSET 12.9945 -0.242716 -4.98039
					CHANNELS 6 Xposition Yposition Zposition Zrotation Xrotation Yrotation 
					JOINT UpperArm_R
					{
						OFFSET -5.34813 0.0 0.0
						CHANNELS 6 Xposition Yposition Zposition Zrotation Xrotation Yrotation 
						JOINT LowerArm_R
						{
							OFFSET -24.3289 0.000322201 0.0
							CHANNELS 6 Xposition Yposition Zposition Zrotation Xrotation Yrotation 
							JOINT Hand_R
							{
								OFFSET -22.2915 -0.000108084 0.0
								CHANNELS 6 Xposition Yposition Zposition Zrotation Xrotation Yrotation 
								End Site
								{
									OFFSET 0.0 0.0 0.0
								}
							}
						}
					}
				}
			}
		}
		JOINT UpperLeg_L
		{
			OFFSET -2.19248 -6.46944 0.0
			CHANNELS 6 Xposition Yposition Zposition Zrotation Xrotation Yrotation 
			JOINT LowerLeg_L
			{
				OFFSET 39.0811 0.0 -1.23785e-05
				CHANNELS 6 Xposition Yposition Zposition Zrotation Xrotation Yrotation 
				JOINT Foot_L
				{
					OFFSET 40.9854 0.0 -1.26872e-05
					CHANNELS 6 Xposition Yposition Zposition Zrotation Xrotation Yrotation 
					JOINT Toes_L
					{
						OFFSET 11.7543 0.0 0.0
						CHANNELS 6 Xposition Yposition Zposition Zrotation Xrotation Yrotation 
						End Site
						{
							OFFSET 0.0 0.0 0.0
						}
					}
				}
			}
		}
		JOINT UpperLeg_R
		{
			OFFSET -2.19251 6.46944 0.0
			CHANNELS 6 Xposition Yposition Zposition Zrotation Xrotation Yrotation 
			JOINT LowerLeg_R
			{
				OFFSET -39.0811 -0.00228153 -0.0401928
				CHANNELS 6 Xposition Yposition Zposition Zrotation Xrotation Yrotation 
				JOINT Foot_R
				{
					OFFSET -40.9854 0.0 0.0
					CHANNELS 6 Xposition Yposition Zposition Zrotation Xrotation Yrotation 
					JOINT Toes_R
					{
						OFFSET -11.7543 0.0 0.0
						CHANNELS 6 Xposition Yposition Zposition Zrotation Xrotation Yrotation 
						End Site
						{
							OFFSET 0.0 0.0 0.0
						}
					}
				}
			}
		}
	}
}
MOTION
Frames:	4
Frame Time:	0.0333333
0.000000 0.000000 0.000000 0.000000 0.000000 -0.000000 -0.914531 90.592100 -5.767380 89.304100 -3.286310 12.449400 15.735700 0.000005 -0.000001 89.938700 75.758500 -90.135900 8.984550 -0.406207 -0.000000 20.716800 -0.051923 -0.386291 16.377300 -0.000001 -0.000001 9.125760 -4.410810 -0.499299 6.456720 -0.000001 -0.000000 -9.485020 -4.501690 1.439230 12.994200 -0.242716 4.980390 -89.574900 -1.365570 -72.704900 5.348090 -0.000007 -0.000001 -78.228800 -24.931300 -85.634900 24.328600 0.000019 0.000005 44.233200 -11.734900 -101.800000 22.291600 -0.000001 0.000005 14.380900 4.864750 10.073900 12.994500 -0.242716 -4.980390 89.158100 9.197440 -84.747200 -5.348130 -0.000001 -0.000004 -54.920700 35.744300 -26.886300 -24.328900 0.000322 -0.000009 1.329830 3.327380 -21.815200 -22.291500 -0.000108 -0.000004 16.543100 5.418860 -3.560840 -2.192480 -6.469440 -0.000000 -174.225000 -10.994600 -2.653450 39.081100 -0.000007 -0.000012 -0.165924 0.253066 33.251300 40.985400 -0.000006 -0.000013 0.294191 6.123330 -67.964400 11.754300 -0.000000 0.000003 -0.000062 -0.000678 -16.603800 -2.192510 6.469440 -0.000001 174.903000 19.986500 178.499000 -39.081100 -0.002282 -0.040193 -0.160694 0.256003 32.642900 -40.985400 0.000008 0.000006 4.215580 13.606200 -68.571900 -11.754300 -0.000006 -0.000006 -0.003647 -0.047715 -18.513900
0.000000 0.000000 0.000000 0.000000 0.000000 -0.000000 -0.909815 90.593100 -5.814880 89.306300 -3.315860 12.451100 15.735700 0.000005 -0.000001 89.948100 75.721700 -90.159100 8.984550 -0.406207 -0.000000 20.790400 -0.049095 -0.414518 16.377300 -0.000001 -0.000001 9.138810 -4.412890 -0.570746 6.456720 -0.000001 -0.000000 -9.409340 -4.519310 1.477490 12.994200 -0.242716 4.980390 -89.582400 -1.338250 -72.666100 5.348090 -0.000007 -0.000001 -78.246100 -24.913700 -85.669600 24.328600 0.000019 0.000005 44.199800 -11.726700 -101.805000 22.291600 -0.000001 0.000005 14.491700 4.861080 10.145400 12.994500 -0.242716 -4.980390 89.163700 9.176320 -84.769900 -5.348130 -0.000001 -0.000004 -54.978900 35.729900 -26.871700 -24.328900 0.000322 -0.000009 1.357190 3.400890 -21.786000 -22.291500 -0.000108 -0.000004 16.504000 5.419070 -3.567820 -2.192480 -6.469440 -0.000000 -174.236000 -10.972900 -2.671590 39.081100 -0.000007 -0.000012 -0.167595 0.255645 33.248200 40.985400 -0.000006 -0.000013 0.280840 6.074060 -67.941500 11.754300 -0.000000 0.000003 -0.000063 -0.000691 -16.604300 -2.192510 6.469440 -0.000001 174.908000 19.996100 178.459000 -39.081100 -0.002282 -0.040193 -0.159899 0.254728 32.646400 -40.985400 0.000008 0.000006 4.222410 13.625500 -68.537000 -11.754300 -0.000006 -0.000006 -0.003735 -0.048656 -18.552200
0.000000 0.000000 0.000000 0.000000 0.000000 -0.000000 -0.906257 90.595600 -5.860380 89.306500 -3.334940 12.471300 15.735700 0.000005 -0.000001 89.950500 75.690800 -90.166600 8.984550 -0.406207 -0.000000 20.852300 -0.048687 -0.424867 16.377300 -0.000001 -0.000001 9.142760 -4.424580 -0.653992 6.456720 -0.000001 -0.000000 -9.368430 -4.565200 1.447970 12.994200 -0.242716 4.980390 -89.581300 -1.341980 -72.671000 5.348090 -0.000007 -0.000001 -78.365800 -24.872000 -85.635900 24.328600 0.000019 0.000005 44.316300 -11.825700 -101.854000 22.291600 -0.000001 0.000005 14.427000 4.859230 10.181600 12.994500 -0.242716 -4.980390 89.162600 9.180380 -84.765600 -5.348130 -0.000001 -0.000004 -54.977700 35.781900 -26.862300 -24.328900 0.000322 -0.000009 1.344370 3.368290 -21.788700 -22.291500 -0.000108 -0.000004 16.534300 5.419860 -3.594420 -2.192480 -6.469440 -0.000000 -174.233000 -11.023800 -2.690200 39.081100 -0.000007 -0.000012 -0.163602 0.249591 33.244300 40.985400 -0.000006 -0.000013 0.297732 6.109710 -67.897500 11.754300 -0.000000 0.000003 -0.000063 -0.000689 -16.604200 -2.192510 6.469440 -0.000001 174.918000 19.988200 178.445000 -39.081100 -0.002282 -0.040193 -0.156616 0.249657 32.640800 -40.985400 0.000008 0.000006 4.234560 13.649700 -68.502700 -11.754300 -0.000006 -0.000006 -0.003760 -0.048920 -18.562900
0.000000 0.000000 0.000000 0.000000 0.000000 -0.000000 -0.909055 90.592900 -5.904030 89.297100 -3.318670 12.495600 15.735700 0.000005 -0.000001 89.962200 75.650900 -90.182100 8.984550 -0.406207 -0.000000 20.932200 -0.043611 -0.433376 16.377300 -0.000001 -0.000001 9.043590 -4.464430 -0.702677 6.456720 -0.000001 -0.000000 -9.351440 -4.601200 1.424400 12.994200 -0.242716 4.980390 -89.586400 -1.324570 -72.658500 5.348090 -0.000007 -0.000001 -78.428000 -24.738300 -85.648200 24.328600 0.000019 0.000005 44.277800 -11.848100 -101.891000 22.291600 -0.000001 0.000005 14.383600 4.859910 10.168200 12.994500 -0.242716 -4.980390 89.155600 9.217270 -84.742700 -5.348130 -0.000001 -0.000004 -54.956100 35.793600 -26.837400 -24.328900 0.000322 -0.000009 1.354340 3.382270 -21.852900 -22.291500 -0.000108 -0.000004 16.534400 5.418970 -3.564420 -2.192480 -6.469440 -0.000000 -174.218000 -11.011700 -2.707860 39.081100 -0.000007 -0.000012 -0.168139 0.256311 33.265100 40.985400 -0.000006 -0.000013 0.296984 6.116080 -67.876400 11.754300 -0.000000 0.000003 -0.000062 -0.000682 -16.603900 -2.192510 6.469440 -0.000001 174.932000 20.004100 178.433000 -39.081100 -0.002282 -0.040193 -0.154644 0.246451 32.654300 -40.985400 0.000008 0.000006 4.239100 13.633100 -68.480200 -11.754300 -0.000006 -0.000006 -0.003590 -0.047101 -18.488900
